<svg xmlns="http://www.w3.org/2000/svg" width="57.318" height="41.549" viewBox="0 0 57.318 41.549">
  <g id="parked-car" transform="translate(0 -37.486)">
    <path id="Path_92" data-name="Path 92" d="M40.647,89.808a2.13,2.13,0,0,0-.563.078l-2.139.589-2.221-5.412a4.848,4.848,0,0,0-4.147-2.78H10.786a4.847,4.847,0,0,0-4.147,2.78l-2.218,5.4-2.113-.582a2.128,2.128,0,0,0-.563-.078A1.734,1.734,0,0,0,0,91.645v1.261a2.256,2.256,0,0,0,2.253,2.253H2.5l-.359.873a16.9,16.9,0,0,0-1.061,5.375v10.751a2.256,2.256,0,0,0,2.253,2.253H6.271a2.256,2.256,0,0,0,2.253-2.253v-2.685H33.838v2.685a2.256,2.256,0,0,0,2.253,2.253h2.942a2.256,2.256,0,0,0,2.253-2.253v-10.75a16.9,16.9,0,0,0-1.061-5.375l-.359-.873h.272a2.256,2.256,0,0,0,2.253-2.253V91.645A1.734,1.734,0,0,0,40.647,89.808ZM6.036,93.935,9.4,85.75a2.913,2.913,0,0,1,2.487-1.667h18.6a2.913,2.913,0,0,1,2.487,1.667l3.361,8.185A1.125,1.125,0,0,1,35.209,95.6H7.154A1.125,1.125,0,0,1,6.036,93.935Zm7.5,10.354a.9.9,0,0,1-.9.9H6.253a.9.9,0,0,1-.9-.9v-3.064a.9.9,0,0,1,.9-.9h6.384a.9.9,0,0,1,.9.9Zm23.413,0a.9.9,0,0,1-.9.9H29.666a.9.9,0,0,1-.9-.9v-3.064a.9.9,0,0,1,.9-.9h6.384a.9.9,0,0,1,.9.9Z" transform="translate(0 -35.376)" fill="#011334"/>
    <g id="Group_35" data-name="Group 35" transform="translate(41.011 37.486)">
      <path id="Path_93" data-name="Path 93" d="M208.481,37.486H197.81a2.821,2.821,0,0,0-2.818,2.818V50.975a2.821,2.821,0,0,0,2.818,2.818h4.284v23.95a1.052,1.052,0,1,0,2.1,0V53.793h4.284a2.821,2.821,0,0,0,2.818-2.818V40.3A2.821,2.821,0,0,0,208.481,37.486Zm-2.417,8.848a3.906,3.906,0,0,1-2.687.833h-1.545a.337.337,0,0,0-.337.337v2.606a.514.514,0,0,1-.513.513h-1.17a.514.514,0,0,1-.513-.513V41.171a.514.514,0,0,1,.513-.514h2.948c1.953,0,2.682.294,3.281.8a3.036,3.036,0,0,1,.952,2.441A3.12,3.12,0,0,1,206.064,46.334Z" transform="translate(-194.992 -37.486)" fill="#e8b609"/>
      <path id="Path_94" data-name="Path 94" d="M228.809,61.606a2.587,2.587,0,0,0-1.5-.325h-1.06a.337.337,0,0,0-.337.336v2.142a.337.337,0,0,0,.337.336h.635c.233,0,.61-.017.84-.038a2.876,2.876,0,0,0,1.084-.286,1.61,1.61,0,0,0,0-2.165Z" transform="translate(-219.41 -56.276)" fill="#e8b609"/>
    </g>
  </g>
</svg>
